<svg width="1280" height="560" viewBox="0 0 1280 560" fill="none" xmlns="http://www.w3.org/2000/svg">
  <defs>
    <linearGradient id="bg" x1="0" y1="0" x2="1280" y2="560" gradientUnits="userSpaceOnUse">
      <stop stop-color="#0B1220"/>
      <stop offset="1" stop-color="#111827"/>
    </linearGradient>
    <linearGradient id="gold" x1="0" y1="0" x2="1" y2="1">
      <stop stop-color="#F2C94C"/>
      <stop offset="1" stop-color="#D4A72C"/>
    </linearGradient>
    <linearGradient id="panel" x1="0" y1="0" x2="1" y2="1">
      <stop stop-color="#17212E"/>
      <stop offset="1" stop-color="#101826"/>
    </linearGradient>
    <marker id="arrow" markerWidth="12" markerHeight="12" refX="10" refY="6" orient="auto">
      <path d="M0 0L12 6L0 12V0Z" fill="#8FA4BC"/>
    </marker>
  </defs>

  <rect width="1280" height="560" rx="24" fill="url(#bg)"/>
  <rect x="42" y="42" width="1196" height="476" rx="28" fill="#121A27" stroke="#D4A72C" stroke-width="2"/>
  <rect x="42" y="42" width="300" height="12" rx="6" fill="url(#gold)"/>

  <text x="78" y="110" fill="white" font-size="50" font-family="Segoe UI, Arial, sans-serif" font-weight="700">Split Sheet Open Sign</text>
  <text x="78" y="150" fill="#B9C5D4" font-size="22" font-family="Segoe UI, Arial, sans-serif">A studio workflow system for split sheets, signatures, PDFs, and delivery.</text>
  <text x="78" y="182" fill="#8FA4BC" font-size="18" font-family="Segoe UI, Arial, sans-serif">Built to close the end-of-session paperwork gap without leaving the studio workflow.</text>

  <rect x="78" y="236" width="228" height="94" rx="20" fill="url(#panel)" stroke="#35506B"/>
  <text x="108" y="278" fill="white" font-size="28" font-family="Segoe UI, Arial, sans-serif" font-weight="700">Web App</text>
  <text x="108" y="308" fill="#C7D2E0" font-size="19" font-family="Segoe UI, Arial, sans-serif">Studio session workflow</text>

  <rect x="78" y="360" width="228" height="94" rx="20" fill="url(#panel)" stroke="#35506B"/>
  <text x="108" y="402" fill="white" font-size="28" font-family="Segoe UI, Arial, sans-serif" font-weight="700">VST Client</text>
  <text x="108" y="432" fill="#C7D2E0" font-size="19" font-family="Segoe UI, Arial, sans-serif">DAW-native entry point</text>

  <rect x="390" y="278" width="254" height="136" rx="22" fill="url(#panel)" stroke="#D4A72C" stroke-width="2"/>
  <text x="422" y="330" fill="white" font-size="30" font-family="Segoe UI, Arial, sans-serif" font-weight="700">Express App</text>
  <text x="422" y="364" fill="#F8E7A9" font-size="22" font-family="Segoe UI, Arial, sans-serif" font-weight="600">JSON API + Views</text>
  <text x="422" y="394" fill="#C7D2E0" font-size="18" font-family="Segoe UI, Arial, sans-serif">One backend for browser and plugin flows</text>

  <rect x="730" y="218" width="214" height="78" rx="18" fill="url(#panel)" stroke="#334155"/>
  <text x="758" y="264" fill="white" font-size="24" font-family="Segoe UI, Arial, sans-serif" font-weight="700">Split Validation</text>

  <rect x="730" y="314" width="214" height="78" rx="18" fill="url(#panel)" stroke="#334155"/>
  <text x="768" y="360" fill="white" font-size="24" font-family="Segoe UI, Arial, sans-serif" font-weight="700">Signer Links</text>

  <rect x="730" y="410" width="214" height="78" rx="18" fill="url(#panel)" stroke="#334155"/>
  <text x="782" y="456" fill="white" font-size="24" font-family="Segoe UI, Arial, sans-serif" font-weight="700">Admin Review</text>

  <rect x="1018" y="206" width="180" height="84" rx="18" fill="#101722" stroke="#334155"/>
  <text x="1050" y="254" fill="white" font-size="24" font-family="Segoe UI, Arial, sans-serif" font-weight="700">Database</text>
  <text x="1048" y="280" fill="#C7D2E0" font-size="18" font-family="Segoe UI, Arial, sans-serif">SQLite / Postgres</text>

  <rect x="1018" y="320" width="180" height="84" rx="18" fill="#101722" stroke="#334155"/>
  <text x="1060" y="368" fill="white" font-size="24" font-family="Segoe UI, Arial, sans-serif" font-weight="700">PDFs</text>
  <text x="1054" y="394" fill="#C7D2E0" font-size="18" font-family="Segoe UI, Arial, sans-serif">Final packet output</text>

  <rect x="1018" y="434" width="180" height="84" rx="18" fill="#101722" stroke="#334155"/>
  <text x="1048" y="482" fill="white" font-size="24" font-family="Segoe UI, Arial, sans-serif" font-weight="700">Email</text>
  <text x="1040" y="508" fill="#C7D2E0" font-size="18" font-family="Segoe UI, Arial, sans-serif">Contributor delivery</text>

  <line x1="306" y1="283" x2="390" y2="325" stroke="#8FA4BC" stroke-width="3" marker-end="url(#arrow)"/>
  <line x1="306" y1="407" x2="390" y2="367" stroke="#8FA4BC" stroke-width="3" marker-end="url(#arrow)"/>
  <line x1="644" y1="346" x2="730" y2="257" stroke="#8FA4BC" stroke-width="3" marker-end="url(#arrow)"/>
  <line x1="644" y1="346" x2="730" y2="353" stroke="#8FA4BC" stroke-width="3" marker-end="url(#arrow)"/>
  <line x1="644" y1="346" x2="730" y2="449" stroke="#8FA4BC" stroke-width="3" marker-end="url(#arrow)"/>
  <line x1="944" y1="257" x2="1018" y2="248" stroke="#8FA4BC" stroke-width="3" marker-end="url(#arrow)"/>
  <line x1="944" y1="353" x2="1018" y2="362" stroke="#8FA4BC" stroke-width="3" marker-end="url(#arrow)"/>
  <line x1="944" y1="449" x2="1018" y2="476" stroke="#8FA4BC" stroke-width="3" marker-end="url(#arrow)"/>
</svg>
